# xmcd
#
# Track frame offsets:
#	150
#	9878
#	22188
#	35913
#	47972
#	58617
#	71258
#	85147
#	96542
#	110553
#
# Disc length: 1642 seconds
#
# Revision: 0
# Processed by: cddbd v1.5.1PL2 Copyright (c) Steve Scherf et al.
# Submitted via: dBpowerAMP V4.0
#
DISCID=8606680a
DTITLE=Johnny Cash - Rainbow
DYEAR=1900
DGENRE=Country
TTITLE0=Leaving Now
TTITLE1=Here Comes That Rainbow Again
TTITLE2=They´re All The Same
TTITLE3=Easy Street
TTITLE4=Have You Ever Seen The Rain
TTITLE5=You Beat All I Ever Saw
TTITLE6=Unwed Fathers
TTITLE7=Love Me Like You Used To
TTITLE8=Casey´s Last Ride
TTITLE9=Borderline (A Musical Whodunit)
EXTD=
EXTT0=
EXTT1=
EXTT2=
EXTT3=
EXTT4=
EXTT5=
EXTT6=
EXTT7=
EXTT8=
EXTT9=
PLAYORDER=
